# xmcd CD database file
#
# Track frame offsets:
#	150
#	21139
#	46401
#	66328
#	85434
#	102633
#	117264
#	137000
#	158995
#	177918
#	203926
#	225967
#	242155
#	264471
#
# Disc length: 3711 seconds
#
# Revision: 1
# Processed by: cddbd v1.5.2PL0 Copyright (c) Steve Scherf et al.
# Submitted via: CDex 1.70beta3
#
DISCID=c30e7d0e
DTITLE=Chris Hart - Heart Song Ⅲ
DYEAR=2015
DGENRE=Pop
TTITLE0=道
TTITLE1=未来予想図Ⅱ
TTITLE2=どんなときも。
TTITLE3=Butterfly
TTITLE4=ビューティフル・ネーム
TTITLE5=やさしさに包まれたなら
TTITLE6=チェリー
TTITLE7=ENDLESS　STORY
TTITLE8=レイニーブルー
TTITLE9=366日
TTITLE10=木蘭の涙
TTITLE11=翼をください
TTITLE12=時代
TTITLE13=ステイ・ウィズ・ミー
EXTD=YEAR: 2015
EXTT0=
EXTT1=
EXTT2=
EXTT3=
EXTT4=
EXTT5=
EXTT6=
EXTT7=
EXTT8=
EXTT9=
EXTT10=
EXTT11=
EXTT12=
EXTT13=
PLAYORDER=
